<?xml version="1.0" encoding="UTF-8"?>
<svg id="Layer_8_copy" data-name="Layer 8 copy" xmlns="http://www.w3.org/2000/svg" xmlns:xlink="http://www.w3.org/1999/xlink" viewBox="0 0 1024 1024">
  <defs>
    <style>
      .cls-1 {
        fill: url(#New_Gradient_Swatch);
      }

      .cls-2 {
        fill: url(#New_Gradient_Swatch_copy);
      }
    </style>
    <linearGradient id="New_Gradient_Swatch" data-name="New Gradient Swatch" x1="476.96" y1="615.32" x2="476.96" y2="209" gradientUnits="userSpaceOnUse">
      <stop offset="0" stop-color="#4a3dff" stop-opacity=".5"/>
      <stop offset="1" stop-color="#4a3dff"/>
    </linearGradient>
    <linearGradient id="New_Gradient_Swatch_copy" data-name="New Gradient Swatch copy" x1="911.09" y1="145.43" x2="911.09" y2="-287.01" gradientTransform="translate(1432.54 527.99) rotate(-180)" gradientUnits="userSpaceOnUse">
      <stop offset="0" stop-color="#ff584d" stop-opacity=".5"/>
      <stop offset="1" stop-color="#ff584d"/>
    </linearGradient>
  </defs>
  <path class="cls-1" d="M489.56,615.32c-24.74,0-49.59-8.54-69.79-25.94l-194.13-167.31c-44.75-38.57-49.76-106.12-11.2-150.87,38.57-44.75,106.12-49.77,150.87-11.19l100.18,86.34c7.55,6.51,18.94,5.72,25.52-1.78l87.03-99.16c38.97-44.4,106.56-48.81,150.96-9.84,44.4,38.97,48.81,106.56,9.84,150.96l-168.84,192.37c-21.13,24.08-50.71,36.41-80.44,36.41Z"/>
  <path class="cls-2" d="M728.49,815c-25.31,0-50.72-8.93-71.11-27.09l-151.08-134.56c-7.58-6.75-19.22-6.04-25.91,1.59l-85.61,97.54c-38.97,44.4-106.56,48.81-150.96,9.84-44.4-38.97-48.81-106.56-9.84-150.96l168.84-192.37c18.8-21.43,45.38-34.46,73.83-36.21,28.45-1.75,56.43,7.93,77.71,26.89l245.31,218.49c44.12,39.29,48.03,106.91,8.73,151.03-21.13,23.73-50.46,35.83-79.92,35.83Z"/>
</svg>