<?xml version="1.0" encoding="UTF-8"?>
<svg id="Layer_8_copy" data-name="Layer 8 copy" xmlns="http://www.w3.org/2000/svg" xmlns:xlink="http://www.w3.org/1999/xlink" viewBox="0 0 30 30">
  <defs>
    <style>
      .cls-1 {
        fill: url(#New_Gradient_Swatch);
      }

      .cls-2 {
        fill: url(#New_Gradient_Swatch_copy);
      }
    </style>
    <linearGradient id="New_Gradient_Swatch" data-name="New Gradient Swatch" x1="13.81" y1="18.51" x2="13.81" y2="4.7" gradientUnits="userSpaceOnUse">
      <stop offset="0" stop-color="#4a3dff" stop-opacity=".5"/>
      <stop offset="1" stop-color="#4a3dff"/>
    </linearGradient>
    <linearGradient id="New_Gradient_Swatch_copy" data-name="New Gradient Swatch copy" x1="-2582.79" y1="517.39" x2="-2582.79" y2="502.69" gradientTransform="translate(-2567.46 527.99) rotate(-180)" gradientUnits="userSpaceOnUse">
      <stop offset="0" stop-color="#ff584d" stop-opacity=".5"/>
      <stop offset="1" stop-color="#ff584d"/>
    </linearGradient>
  </defs>
  <path class="cls-1" d="M14.24,18.51c-.84,0-1.69-.29-2.37-.88l-6.6-5.69c-1.52-1.31-1.69-3.61-.38-5.13,1.31-1.52,3.61-1.69,5.13-.38l3.41,2.94c.26.22.64.19.87-.06l2.96-3.37c1.33-1.51,3.62-1.66,5.13-.33,1.51,1.33,1.66,3.62.33,5.13l-5.74,6.54c-.72.82-1.72,1.24-2.74,1.24Z"/>
  <path class="cls-2" d="M22.36,25.3c-.86,0-1.72-.3-2.42-.92l-5.14-4.58c-.26-.23-.65-.21-.88.05l-2.91,3.32c-1.33,1.51-3.62,1.66-5.13.33-1.51-1.33-1.66-3.62-.33-5.13l5.74-6.54c.64-.73,1.54-1.17,2.51-1.23.97-.06,1.92.27,2.64.91l8.34,7.43c1.5,1.34,1.63,3.64.3,5.14-.72.81-1.72,1.22-2.72,1.22Z"/>
</svg>